<svg width="1405" height="1428" viewBox="0 0 1405 1428" fill="none" xmlns="http://www.w3.org/2000/svg">
<g opacity="0.2" filter="url(#filter0_f_1_2057)">
<path fill-rule="evenodd" clip-rule="evenodd" d="M770.836 150.035C631.985 117.251 479.377 65.4717 353.672 132.995C224.098 202.597 161.954 355.15 124.164 497.4C87.862 634.048 90.0937 781.2 147.102 910.571C200.815 1032.46 311.139 1115.52 426.116 1182.63C531.423 1244.1 650.285 1256.5 770.836 1274.64C916.115 1296.5 1069.88 1367.19 1200.09 1299.09C1334.43 1228.83 1390.72 1068.84 1439.2 925.085C1488.17 779.848 1555.61 609.584 1476.93 478.074C1398.39 346.796 1204.6 365.585 1065.93 301.165C963.195 253.434 881.076 176.063 770.836 150.035Z" fill="#D6F8A7"/>
</g>
<defs>
<filter id="filter0_f_1_2057" x="0" y="0" width="1613" height="1428" filterUnits="userSpaceOnUse" color-interpolation-filters="sRGB">
<feFlood flood-opacity="0" result="BackgroundImageFix"/>
<feBlend mode="normal" in="SourceGraphic" in2="BackgroundImageFix" result="shape"/>
<feGaussianBlur stdDeviation="50" result="effect1_foregroundBlur_1_2057"/>
</filter>
</defs>
</svg>
